<svg width="32" height="32" fill="none" xmlns="http://www.w3.org/2000/svg"><path d="M31.687 16c0 8.837-7.093 16-15.843 16S0 24.837 0 16 7.093 0 15.844 0c8.75 0 15.843 7.163 15.843 16Z" fill="#D1C8C1"/><path d="M12.074 31.43c6.803-1.81 11.818-8.049 11.818-15.466 0-7.368-4.948-13.572-11.682-15.43A15.789 15.789 0 0 1 16.143.04C24.901.04 32 7.185 32 16c0 8.815-7.1 15.96-15.857 15.96-1.406 0-2.77-.184-4.069-.53Z" fill="#856959"/><path d="M9.697 5.207c.028-.104.174-.104.202 0l.68 2.57a.105.105 0 0 0 .063.071l2.185.84c.09.035.09.163 0 .197l-2.185.84a.105.105 0 0 0-.064.072l-.68 2.57c-.027.103-.173.103-.2 0l-.68-2.57a.105.105 0 0 0-.064-.071L6.77 8.885a.105.105 0 0 1 0-.196l2.185-.84a.105.105 0 0 0 .064-.072l.68-2.57ZM6.388 18.537c.027-.104.174-.104.201 0l.535 2.048a.105.105 0 0 0 .063.071l1.735.676a.105.105 0 0 1 0 .195l-1.735.676a.105.105 0 0 0-.063.071l-.535 2.048c-.027.105-.174.105-.201 0l-.535-2.048a.105.105 0 0 0-.063-.071l-1.734-.676a.105.105 0 0 1 0-.195l1.734-.676a.105.105 0 0 0 .063-.071l.535-2.048ZM16.238 10.613c.027-.104.174-.104.201 0l.497 1.891a.105.105 0 0 0 .064.072l1.614.624c.089.035.089.162 0 .196L17 14.021a.105.105 0 0 0-.064.071l-.497 1.892c-.027.104-.174.104-.201 0l-.497-1.892a.105.105 0 0 0-.063-.07l-1.614-.626a.105.105 0 0 1 0-.196l1.614-.624a.105.105 0 0 0 .063-.072l.497-1.89Z" fill="#856959"/></svg>